<?xml version="1.0" encoding="UTF-8"?>
<svg viewBox="0 0 671.94226 461.85345" xmlns="http://www.w3.org/2000/svg">
 <defs>
  <radialGradient id="a" cx="-418.57" cy="1926.6" r="264.29" gradientTransform="matrix(.76551 .038112 -.012455 .27657 -74.157 1409.7)" gradientUnits="userSpaceOnUse">
   <stop offset="0"/>
   <stop stop-opacity="0" offset="1"/>
  </radialGradient>
 </defs>
 <g transform="matrix(.8639 0 0 .8639 576.37 -842.41)">
  <path transform="matrix(1.2711 -.054276 .057242 1.2052 143.48 -982.57)" d="m-154.29 1926.6a264.29 91.429 0 1 1 -528.57 0 264.29 91.429 0 1 1 528.57 0z" fill="url(#a)" fill-rule="evenodd" opacity=".47431"/>
  <path d="m-388.26 1013.4c-14.039 5.1348-46.206 12.029-60.331 16.961-3.7996 1.3267-15.655-0.0341-23.483 1.5584-18.718 3.8079-33.123 10.148-51.045 16.695-10.803 7.1483-13.347 21.466-12.212 33.605-4.8062 108.55-11.137 217.06-14.628 325.66 2.5895 14.805 19.054 23.314 33.157 21.174 88.783 3.8088 177.55 8.0736 266.34 11.714 16.911-4.5888 90.559-46.123 114.83-70.066 13.738-101.7-6.5116-284.83-16.589-334.65-42.734-26.095-175.93-26.766-236.04-22.654z" fill-rule="evenodd"/>
  <path d="m-332.28 1026c-17.134-2e-3 -34.142 0.3376-51.496 0.6343l-52.271 17.948-24.55-0.4698-48.043 15.411c-5.8117-0.2737-10.721 4.1729-10.995 9.9845l-15.693 333.03c-0.2738 5.8117 4.1962 10.697 10.008 10.971l272.02 12.122c35.276-13.968 69.875-34.576 103.51-65.333 5.8721-101.43-0.63672-287.71-16.761-316.36-44.217-19.193-116.62-17.936-165.73-17.942z" fill="#728b9d" fill-rule="evenodd"/>
  <path d="m-508.64 1059.5 253.65 11.95c5.8117 0.2738 10.27 5.173 9.9961 10.985l-3.4698 332.04c-0.27382 5.8117-5.173 10.27-10.985 9.9961l-265.87-10.958c-5.8117-0.2739-10.27-5.173-9.9961-10.985l15.691-333.03c0.27379-5.8117 5.1729-10.27 10.985-9.9961z" fill="#fff" fill-rule="evenodd" opacity=".3"/>
  <path d="m-505.16 1079.6c-16.595 4.8213 8.3266 21.222 6.0805 3.9355-0.8825-2.4707-3.4807-4.1195-6.0805-3.9355zm73.838 0.1174c-16.621 3.5833 6.658 21.408 5.6672 4.2844-0.68804-2.4838-3.1095-4.2723-5.6672-4.2844zm78.63 4.2287c-16.59 3.6086 6.6964 21.395 5.687 4.2844-0.6983-2.4849-3.1262-4.2701-5.687-4.2844zm81.214 10.525c-19.012 6.8796 12.87 20.126 4.302 1.7826l-1.9341-1.3043-2.3679-0.4783zm-235.8 62.42c-16.594 4.8216 8.3026 21.259 6.0807 3.9555-0.88054-2.4733-3.4741-4.1413-6.0807-3.9555zm236.88 14.918c-19.012 6.8796 12.87 20.126 4.3021 1.7826l-1.9341-1.3042-2.3679-0.4784zm-239.72 53.751c-16.554 4.8639 8.3206 21.238 6.0807 3.9555-0.88047-2.4734-3.4741-4.1413-6.0807-3.9555zm239.72 14.965c-17.416 4.4686 8.271 21.531 5.6063 3.7365-0.90516-2.2125-3.2046-3.7716-5.6063-3.7365zm-244.14 66.203c-16.595 4.8213 8.3265 21.222 6.0807 3.9356-0.8825-2.4709-3.4809-4.1196-6.0807-3.9356zm243.06 15.082c-17.414 4.4471 8.2759 21.503 5.6063 3.7167-0.90651-2.2098-3.2108-3.7525-5.6063-3.7167zm-247.83 57.44c-16.588 4.8115 8.2906 21.261 6.0572 3.9554-0.87784-2.4632-3.4579-4.1348-6.0572-3.9554zm82.601 8.6923c-16.589 3.6148 6.6767 21.395 5.687 4.2844-0.69831-2.4849-3.1262-4.2701-5.687-4.2844zm78.654 4.2287c-16.621 3.5834 6.6581 21.407 5.6672 4.2844-0.68803-2.4838-3.1095-4.2723-5.6672-4.2844zm84.785 2.3023c-19.012 6.8797 12.87 20.126 4.3021 1.7825l-1.9341-1.3041-2.3679-0.4784z" fill="#fff" fill-rule="evenodd"/>
  <path d="m-485.63 1114.1-7.7022 255.36 191.07 9.1545 1.8492-254.16-185.21-10.354z" fill="#728b9d" fill-rule="evenodd"/>
  <path d="m-391.29 1191.8c-11.189-1e-4 -21.674 3.2849-30.781 9-2.1614-4.0623-6.4553-6.8438-11.375-6.8438-7.0971 0-12.844 5.7779-12.844 12.875 0 4.6421 2.4654 8.6772 6.1562 10.938-8.7664 12.032-14.031 27.344-14.031 44.031-1e-5 28 14.836 52.152 36.188 63.344-1.1927 1.9504-1.875 4.2355-1.875 6.6875 0 7.0971 5.7466 12.844 12.844 12.844s12.875-5.7467 12.875-12.844c0-0.042 4e-4 -0.0831 0-0.125 0.94767 0.0473 1.8857 0.0938 2.8438 0.0938 34.697-1e-4 62.844-31.36 62.844-70 0-9.9619-1.8784-19.419-5.25-28 6.2066-0.9111 10.969-6.2293 10.969-12.688 0-7.0971-5.7466-12.875-12.844-12.875-4.2172 0-7.9675 2.0478-10.312 5.1876-11.442-13.32-27.557-21.625-45.406-21.625zm-1.4375 22.75c12.749-1e-4 24.247 5.9375 32.438 15.437l-14.5 11.844c-5.1745-6.2196-12.573-10.125-20.781-10.125-4.6855 0-9.1058 1.285-13 3.5312l-8.7812-12.5c7.0777-5.1695 15.536-8.1874 24.625-8.1874zm-33.844 17.125 9.2812 11.344c-4.1147 5.4765-6.625 12.525-6.625 20.219 0 12.732 6.802 23.706 16.562 28.688l-3.4062 18.687c-15.868-7.7509-26.969-25.417-26.969-45.937-1e-5 -12.64 4.2152-24.179 11.156-33zm73.281 8.875c3.5418 7.1612 5.5625 15.378 5.5625 24.125-1e-5 27.663-20.16 50.125-45 50.125-1.9618-1e-4 -3.8855-0.1346-5.7812-0.4063l2.0938-19.625c0.27866 9e-3 0.56314 0.0312 0.84375 0.0313 15.635 0 28.312-14.151 28.312-31.563 0-4.0754-0.70331-7.9544-1.9688-11.531l15.938-11.156z" opacity=".5"/>
  <path d="m-398.57 1183.8c-11.189-1e-4 -21.674 3.2849-30.781 9-2.1614-4.0623-6.4553-6.8438-11.375-6.8438-7.0971 0-12.844 5.7779-12.844 12.875 0 4.6421 2.4654 8.6772 6.1562 10.938-8.7664 12.032-14.031 27.344-14.031 44.031-1e-5 28 14.836 52.152 36.188 63.344-1.1927 1.9504-1.875 4.2355-1.875 6.6875 0 7.0971 5.7466 12.844 12.844 12.844s12.875-5.7467 12.875-12.844c0-0.042 4e-4 -0.0831 0-0.125 0.94767 0.0473 1.8857 0.0938 2.8438 0.0938 34.697-1e-4 62.844-31.36 62.844-70 0-9.9619-1.8784-19.419-5.25-28 6.2066-0.9111 10.969-6.2293 10.969-12.688 0-7.0971-5.7466-12.875-12.844-12.875-4.2172 0-7.9675 2.0478-10.312 5.1876-11.442-13.32-27.557-21.625-45.406-21.625zm-1.4375 22.75c12.749-1e-4 24.247 5.9375 32.438 15.437l-14.5 11.844c-5.1745-6.2196-12.573-10.125-20.781-10.125-4.6855 0-9.1058 1.285-13 3.5312l-8.7812-12.5c7.0777-5.1695 15.536-8.1874 24.625-8.1874zm-33.844 17.125 9.2812 11.344c-4.1147 5.4765-6.625 12.525-6.625 20.219 0 12.732 6.802 23.706 16.562 28.688l-3.4062 18.687c-15.868-7.7509-26.969-25.417-26.969-45.937-1e-5 -12.64 4.2152-24.179 11.156-33zm73.281 8.875c3.5418 7.1612 5.5625 15.378 5.5625 24.125-1e-5 27.663-20.16 50.125-45 50.125-1.9618-1e-4 -3.8855-0.1346-5.7812-0.4063l2.0938-19.625c0.27866 9e-3 0.56314 0.0312 0.84375 0.0313 15.635 0 28.312-14.151 28.312-31.563 0-4.0754-0.70331-7.9544-1.9688-11.531l15.938-11.156z" fill="#d3d7cf"/>
  <path d="m-485.63 1114.1-7.7022 255.36 190.31 9.914-0.16449-19.889-168.46-9.0072 5.4134-234.48-19.395-1.8963z" fill-rule="evenodd" opacity=".2"/>
  <path d="m-393.73 1187.3c-50.416-1.1312-67.661 36.643-64.169 75.94 2.3284-2.1332 2.726-63.362 64.169-75.94z" fill="#fff" fill-rule="evenodd"/>
  <path d="m-455.89 1110.2c-14.362-0.0745-25.114 0.7048-29.108 2.8191l177.72 8.5749c2e-5 0-97.323-11.128-148.62-11.394z" fill="#fff" fill-rule="evenodd" opacity=".5"/>
  <path d="m-470.91 1042.9-44.801 16.703 268.08 14.448-1.527 347.03-18.982 5.3093 15.2 2.2789 48.912-27.557-3.5541-332.26c11.519-10.674 13.248-13.82 35.095-22.626-22.002 0.5927-29.051 5.4873-41.551 10.267-84.179-9.0937-167.7-12.481-256.87-13.596z" fill-rule="evenodd" opacity=".3"/>
  <path d="m-394.44 1235.5c-1.4159-3.9194-32.543-5.1236-23.711 25.174 0.14049-1.529-0.03127-19.299 23.711-25.174z" fill="#fff" fill-rule="evenodd"/>
 </g>
</svg>
